<?xml version="1.0" encoding="UTF-8"?>
<svg version="1.1" xmlns="http://www.w3.org/2000/svg" width="480" height="480">
<path d="M0 0 C158.4 0 316.8 0 480 0 C480 158.4 480 316.8 480 480 C321.6 480 163.2 480 0 480 C0 321.6 0 163.2 0 0 Z " fill="#FEFEFE" transform="translate(0,0)"/>
<path d="M0 0 C1.32 0 2.64 0 4 0 C5.85776765 3.13498292 6.20140476 5.37471432 6 9 C7.98 9.66 9.96 10.32 12 11 C12 8.69 12 6.38 12 4 C12.44730469 4.39832031 12.89460937 4.79664062 13.35546875 5.20703125 C17.24513039 8.63552909 17.24513039 8.63552909 21.625 11.375 C24.24381511 13.16682086 24.89364716 14.44122574 26.375 17.1875 C27.52637337 19.31625046 27.52637337 19.31625046 29 21 C32.6288837 21.8344592 32.6288837 21.8344592 36 21 C36.66 20.34 37.32 19.68 38 19 C39.32 19 40.64 19 42 19 C40.48134786 14.70111387 40.48134786 14.70111387 38 11 C37.95936168 9.33382885 37.957279 7.66611905 38 6 C41.8415976 3.43219529 45.8139175 3.77311118 50.25 3.875 C50.99507812 3.88402344 51.74015625 3.89304687 52.5078125 3.90234375 C54.33868059 3.92581642 56.16938238 3.96168475 58 4 C58.33 2.68 58.66 1.36 59 0 C95.19151475 -0.5042762 130.45917603 1.13724289 165 13 C166.06605469 13.36480469 167.13210938 13.72960937 168.23046875 14.10546875 C192.63872492 23.43110593 215.77776307 40.94834981 230 63 C230 63.66 230 64.32 230 65 C230.66 65 231.32 65 232 65 C233.17333984 66.6171875 233.17333984 66.6171875 234.4609375 68.875 C235.16863281 70.10669922 235.16863281 70.10669922 235.890625 71.36328125 C236.38046875 72.23339844 236.8703125 73.10351562 237.375 74 C237.85710937 74.83917969 238.33921875 75.67835938 238.8359375 76.54296875 C243.22397863 84.23396475 247.13257396 91.8007665 250 100.1875 C250.25491211 100.92218506 250.50982422 101.65687012 250.77246094 102.41381836 C253.00321194 108.89579567 255.08971742 115.41601637 257 122 C257.20367187 122.68835938 257.40734375 123.37671875 257.6171875 124.0859375 C260.94847596 136.23232774 261.37581743 148.6240398 261.3125 161.125 C261.31034485 161.89279785 261.3081897 162.6605957 261.30596924 163.45166016 C261.18905739 189.46150557 255.22876443 211.2634002 244.84716797 235.01611328 C243.79444914 237.48135627 242.86333637 239.98474498 241.9375 242.5 C238.809973 250.40184919 234.12311366 257.1499583 228 263 C227.96132813 261.40671875 227.96132813 261.40671875 227.921875 259.78125 C227.47420537 246.90998686 225.28632813 240.6709975 215.70947266 231.6784668 C214.44107383 230.48534832 213.21656388 229.24592921 212 228 C212 227.34 212 226.68 212 226 C208.24341743 227.1512369 208.24341743 227.1512369 205.76049805 230.02636719 C204 232 204 232 200.90551758 232.63769531 C199.66439209 232.70053711 198.4232666 232.76337891 197.14453125 232.828125 C196.48289474 232.8668573 195.82125824 232.9055896 195.13957214 232.94549561 C193.03106853 233.06483165 190.9223445 233.15773485 188.8125 233.25 C187.38076549 233.32638507 185.94912163 233.40449013 184.51757812 233.484375 C181.01254985 233.67620136 177.50684216 233.84435125 174 234 C175.86724764 230.08736865 178.31144712 226.72854263 180.875 223.25 C185.27156863 217.18950407 189.29830345 211.42263828 191 204 C191.66 204 192.32 204 193 204 C193.37125 202.2675 193.37125 202.2675 193.75 200.5 C194.44202822 197.35849061 195.18736101 194.23628778 195.98828125 191.12109375 C196.16456055 190.43273437 196.34083984 189.744375 196.52246094 189.03515625 C196.87438626 187.66818411 197.23031205 186.3022337 197.59082031 184.9375 C199.79954138 176.34093631 200.18195625 168.02977551 200.1875 159.1875 C200.19974609 158.17107422 200.21199219 157.15464844 200.22460938 156.10742188 C200.24266953 146.66196146 198.8451141 137.97634485 195.875 129 C194 123.30656934 194 123.30656934 194 120 C193.01 119.67 192.02 119.34 191 119 C189.89453125 116.4453125 189.89453125 116.4453125 188.8125 113.125 C186.23536132 106.08594958 182.73248779 100.76691135 178 95 C177.34386719 94.16855469 176.68773437 93.33710938 176.01171875 92.48046875 C163.78598093 77.86023614 144.57186993 66.28581614 126 62 C126 61.34 126 60.68 126 60 C125.39671875 59.93941406 124.7934375 59.87882812 124.171875 59.81640625 C123.37265625 59.73261719 122.5734375 59.64882812 121.75 59.5625 C120.96109375 59.48128906 120.1721875 59.40007812 119.359375 59.31640625 C117 59 117 59 115.19073486 58.49879456 C112.62515407 57.9146537 110.21909206 57.79506164 107.58886719 57.70288086 C106.50804871 57.66291489 105.42723022 57.62294891 104.31365967 57.58177185 C103.15312073 57.54318558 101.99258179 57.5045993 100.796875 57.46484375 C99.60394836 57.42186661 98.41102173 57.37888947 97.1819458 57.33460999 C93.37142657 57.19824825 89.56073073 57.06780395 85.75 56.9375 C83.16665285 56.84609274 80.58331929 56.7543006 78 56.66210938 C71.66681757 56.43693982 65.33348003 56.21662844 59 56 C59.00222061 57.29022568 59.00444122 58.58045135 59.00672913 59.90977478 C59.0270966 72.13359478 59.04203724 84.35741128 59.05181217 96.58124447 C59.05700666 102.86398469 59.06404114 109.14671109 59.07543945 115.42944336 C59.08639138 121.50489498 59.09230263 127.5803334 59.09487724 133.65579414 C59.0967095 135.96113861 59.10028687 138.26648244 59.10573006 140.57182121 C59.13483257 153.42124649 58.96989279 166.18381974 58 179 C57.67 178.34 57.34 177.68 57 177 C56.01 177 55.02 177 54 177 C51.8125 174 51.8125 174 50 171 C46.04 171.99 46.04 171.99 42 173 C42 172.01 42 171.02 42 170 C38.535 170.99 38.535 170.99 35 172 C34.91885894 173.77007714 34.86074495 175.54122098 34.8125 177.3125 C34.76029297 178.79169922 34.76029297 178.79169922 34.70703125 180.30078125 C35.05073785 183.4674647 35.7406175 183.92505688 38 186 C38.66957496 188.67318858 38.77362708 191.23825037 39 194 C37.68 194 36.36 194 35 194 C33.32774271 194.30404678 31.65919896 194.63128912 30 195 C30.495 197.475 30.495 197.475 31 200 C31.59167969 199.91621094 32.18335938 199.83242188 32.79296875 199.74609375 C37.09939457 199.19110576 40.75552644 198.76773348 45 200 C45.14241113 195.90554014 45.14241113 195.90554014 44.3125 191.9375 C44 190 44 190 45.125 187.25 C47 185 47 185 49.6875 184.6875 C50.8321875 184.8421875 50.8321875 184.8421875 52 185 C52 187.31 52 189.62 52 192 C54.97 192.99 54.97 192.99 58 194 C58.08138426 196.87557703 58.14067851 199.74882262 58.1875 202.625 C58.21263672 203.43324219 58.23777344 204.24148438 58.26367188 205.07421875 C58.32718493 210.28228911 57.53917104 213.35469484 55 218 C54.53353955 220.82951101 54.53353955 220.82951101 54.625 223.625 C54.61726563 224.54539062 54.60953125 225.46578125 54.6015625 226.4140625 C55.06203338 229.4026088 56.10320294 230.70176441 58 233 C58 233.66 58 234.32 58 235 C54.6531522 234.43139575 53.24878587 233.49926987 51.0625 230.9375 C49.02885069 228.81676747 48.28472312 228.07457034 45.375 227.3125 C42.00480624 228.2880824 40.9089428 230.1365858 39 233 C38.67 233.66 38.34 234.32 38 235 C34.9375 235.625 34.9375 235.625 32 236 C32 238.31 32 240.62 32 243 C29.5625 242.625 29.5625 242.625 27 242 C26.505 241.01 26.505 241.01 26 240 C24.96875 240.0825 23.9375 240.165 22.875 240.25 C18.31075222 239.9555324 16.44064765 238.96055728 13 236 C11.625 233.25 11.625 233.25 11 231 C5.81944389 232.52369297 3.68986704 233.88576024 1.0625 238.6875 C0.35444739 240.1149887 -0.34017019 241.5495907 -1 243 C-1.66 243 -2.32 243 -3 243 C-3.02519898 238.0602249 -3.04308894 233.12048927 -3.05493164 228.18066406 C-3.0598818 226.50910794 -3.06664362 224.83755594 -3.07543945 223.16601562 C-3.12183586 214.10507118 -3.04297093 205.07334199 -2.55859375 196.0234375 C-2.51960464 195.27438141 -2.48061554 194.52532532 -2.44044495 193.75357056 C-2.00805803 186.50788848 -2.00805803 186.50788848 -1 184 C2.4352048 181.70986347 3.985331 181.82157027 8 182 C8.33 180.35 8.66 178.7 9 177 C7.68 177 6.36 177 5 177 C4.34 176.01 3.68 175.02 3 174 C1.35 174 -0.3 174 -2 174 C-2 122.85 -2 71.7 -2 19 C-1.34 19 -0.68 19 0 19 C0.66 20.98 1.32 22.96 2 25 C4.75641416 24.50243908 4.75641416 24.50243908 7 23 C7.41869993 17.6615759 6.48805954 14.66511164 4 10 C4 8.68 4 7.36 4 6 C3.34 6 2.68 6 2 6 C0 3 0 3 0 0 Z " fill="#06AEE8" transform="translate(121,72)"/>
<path d="M0 0 C1.32 0 2.64 0 4 0 C5.85776765 3.13498292 6.20140476 5.37471432 6 9 C7.98 9.66 9.96 10.32 12 11 C12 8.69 12 6.38 12 4 C12.44730469 4.39832031 12.89460937 4.79664062 13.35546875 5.20703125 C17.24513039 8.63552909 17.24513039 8.63552909 21.625 11.375 C24.24381511 13.16682086 24.89364716 14.44122574 26.375 17.1875 C27.52637337 19.31625046 27.52637337 19.31625046 29 21 C32.6288837 21.8344592 32.6288837 21.8344592 36 21 C36.66 20.34 37.32 19.68 38 19 C39.33333333 18.66666667 40.66666667 18.33333333 42 18 C42.66 17.34 43.32 16.68 44 16 C45.65 16 47.3 16 49 16 C49.66 21.28 50.32 26.56 51 32 C51.99 32.33 52.98 32.66 54 33 C54.9590625 34.485 54.9590625 34.485 55.9375 36 C57.80066094 39.41910646 57.80066094 39.41910646 62 40 C62.33 37.03 62.66 34.06 63 31 C64.65 31 66.3 31 68 31 C68.495 34.96 68.495 34.96 69 39 C68.21625 39.0825 67.4325 39.165 66.625 39.25 C63.90548487 39.72624325 63.90548487 39.72624325 62.75 41.8125 C62.0468045 43.86348687 61.45423744 45.88022529 61 48 C61.598125 47.34 62.19625 46.68 62.8125 46 C65 44 65 44 68 44 C68 46.64 68 49.28 68 52 C65.36 52 62.72 52 60 52 C59.99576806 52.55124007 59.99153612 53.10248014 59.98717594 53.67042446 C59.88329773 67.16227546 59.77452775 80.65407967 59.66066074 94.14585018 C59.60573673 100.67070417 59.55236932 107.19556282 59.50268555 113.72045898 C59.45458706 120.0293633 59.40223483 126.33821987 59.34705925 132.64706612 C59.32683957 135.04171099 59.30809595 137.43636884 59.29092598 139.83103752 C59.19606477 152.91848336 58.9631 165.9448882 58 179 C57.67 178.34 57.34 177.68 57 177 C56.01 177 55.02 177 54 177 C51.8125 174 51.8125 174 50 171 C46.04 171.99 46.04 171.99 42 173 C42 172.01 42 171.02 42 170 C38.535 170.99 38.535 170.99 35 172 C34.91885894 173.77007714 34.86074495 175.54122098 34.8125 177.3125 C34.76029297 178.79169922 34.76029297 178.79169922 34.70703125 180.30078125 C35.05073785 183.4674647 35.7406175 183.92505688 38 186 C38.66957496 188.67318858 38.77362708 191.23825037 39 194 C37.68 194 36.36 194 35 194 C33.32774271 194.30404678 31.65919896 194.63128912 30 195 C30.495 197.475 30.495 197.475 31 200 C31.59167969 199.91621094 32.18335938 199.83242188 32.79296875 199.74609375 C37.09939457 199.19110576 40.75552644 198.76773348 45 200 C45.14241113 195.90554014 45.14241113 195.90554014 44.3125 191.9375 C44 190 44 190 45.125 187.25 C47 185 47 185 49.6875 184.6875 C50.8321875 184.8421875 50.8321875 184.8421875 52 185 C52 187.31 52 189.62 52 192 C54.97 192.99 54.97 192.99 58 194 C58.08138426 196.87557703 58.14067851 199.74882262 58.1875 202.625 C58.21263672 203.43324219 58.23777344 204.24148438 58.26367188 205.07421875 C58.32718493 210.28228911 57.53917104 213.35469484 55 218 C54.53353955 220.82951101 54.53353955 220.82951101 54.625 223.625 C54.61726563 224.54539062 54.60953125 225.46578125 54.6015625 226.4140625 C55.06203338 229.4026088 56.10320294 230.70176441 58 233 C58 233.66 58 234.32 58 235 C54.6531522 234.43139575 53.24878587 233.49926987 51.0625 230.9375 C49.02885069 228.81676747 48.28472312 228.07457034 45.375 227.3125 C42.00480624 228.2880824 40.9089428 230.1365858 39 233 C38.67 233.66 38.34 234.32 38 235 C34.9375 235.625 34.9375 235.625 32 236 C32 238.31 32 240.62 32 243 C29.5625 242.625 29.5625 242.625 27 242 C26.505 241.01 26.505 241.01 26 240 C24.96875 240.0825 23.9375 240.165 22.875 240.25 C18.31075222 239.9555324 16.44064765 238.96055728 13 236 C11.625 233.25 11.625 233.25 11 231 C5.81944389 232.52369297 3.68986704 233.88576024 1.0625 238.6875 C0.35444739 240.1149887 -0.34017019 241.5495907 -1 243 C-1.66 243 -2.32 243 -3 243 C-3.02519898 238.0602249 -3.04308894 233.12048927 -3.05493164 228.18066406 C-3.0598818 226.50910794 -3.06664362 224.83755594 -3.07543945 223.16601562 C-3.12183586 214.10507118 -3.04297093 205.07334199 -2.55859375 196.0234375 C-2.51960464 195.27438141 -2.48061554 194.52532532 -2.44044495 193.75357056 C-2.00805803 186.50788848 -2.00805803 186.50788848 -1 184 C2.4352048 181.70986347 3.985331 181.82157027 8 182 C8.33 180.35 8.66 178.7 9 177 C7.68 177 6.36 177 5 177 C4.34 176.01 3.68 175.02 3 174 C1.35 174 -0.3 174 -2 174 C-2 122.85 -2 71.7 -2 19 C-1.34 19 -0.68 19 0 19 C0.66 20.98 1.32 22.96 2 25 C4.75641416 24.50243908 4.75641416 24.50243908 7 23 C7.41869993 17.6615759 6.48805954 14.66511164 4 10 C4 8.68 4 7.36 4 6 C3.34 6 2.68 6 2 6 C0 3 0 3 0 0 Z " fill="#041657" transform="translate(121,72)"/>
<path d="M0 0 C0.495 0.99 0.495 0.99 1 2 C0.21314775 3.70484653 -0.57393837 5.40958645 -1.36328125 7.11328125 C-2.31348817 9.92892508 -1.75457499 12.18749321 -1 15 C-2.65 15.66 -4.3 16.32 -6 17 C-5.505 19.475 -5.505 19.475 -5 22 C-0.05 22.99 -0.05 22.99 5 24 C5 24.66 5 25.32 5 26 C5.66 26.33 6.32 26.66 7 27 C6.505 28.485 6.505 28.485 6 30 C5.96045766 32.33299825 5.95598268 34.66708189 6 37 C6.69867188 37.06058594 7.39734375 37.12117188 8.1171875 37.18359375 C9.02726562 37.26738281 9.93734375 37.35117187 10.875 37.4375 C11.77992188 37.51871094 12.68484375 37.59992188 13.6171875 37.68359375 C16 38 16 38 18 39 C28.77634878 39.73325375 28.77634878 39.73325375 39 37 C40.38123963 35.03277992 41.71488126 33.03131672 43 31 C45.8125 29.4375 45.8125 29.4375 49 28 C50.26641302 27.12752339 51.51633372 26.23069653 52.75 25.3125 C56 23 56 23 58 23 C58.33 21.68 58.66 20.36 59 19 C60.65 19 62.3 19 64 19 C64.73828125 20.7109375 64.73828125 20.7109375 65 23 C62.46552736 26.71375168 59.13241168 29.78393341 56 33 C55.27554688 33.80953125 54.55109375 34.6190625 53.8046875 35.453125 C31.95980229 59.04864561 -2.22758922 70.32601728 -33 76 C-34.29019043 76.24339111 -34.29019043 76.24339111 -35.60644531 76.49169922 C-73.19639851 83.36168501 -73.19639851 83.36168501 -86 75.1875 C-89 73.04296875 -89 73.04296875 -91 71 C-91 70.01 -91 69.02 -91 68 C-86.71 65.69 -82.42 63.38 -78 61 C-81.79757782 57.96193774 -85.27814335 55.55575414 -89.42578125 53.1484375 C-90.20501953 52.57996094 -90.20501953 52.57996094 -91 52 C-91 51.34 -91 50.68 -91 50 C-88.4453125 48.2734375 -88.4453125 48.2734375 -85.125 46.375 C-84.03445312 45.74335938 -82.94390625 45.11171875 -81.8203125 44.4609375 C-79 43 -79 43 -77 43 C-77 42.34 -77 41.68 -77 41 C-77.71542969 40.72414063 -78.43085938 40.44828125 -79.16796875 40.1640625 C-81.95738855 39.01751478 -84.62290358 37.73772885 -87.3125 36.375 C-88.63701172 35.70597656 -88.63701172 35.70597656 -89.98828125 35.0234375 C-90.65214844 34.68570313 -91.31601563 34.34796875 -92 34 C-92 33.34 -92 32.68 -92 32 C-82.2158214 22.94245297 -71.64305501 21.89418126 -58.6965332 21.60546875 C-51.25329883 21.41220335 -44.95362815 20.42384057 -37.89990234 17.99121094 C-35.0396637 17.01355739 -32.1891777 16.26181788 -29.25 15.5625 C-24.75392372 14.36966344 -21.03328266 12.60206033 -17.0703125 10.18359375 C-15 9 -15 9 -12.57421875 8.07421875 C-9.62264635 6.84253072 -7.28040485 5.24189149 -4.6875 3.375 C-3.80449219 2.74335938 -2.92148437 2.11171875 -2.01171875 1.4609375 C-1.01591797 0.73777344 -1.01591797 0.73777344 0 0 Z " fill="#061656" transform="translate(282,317)"/>
<path d="M0 0 C0.66 0 1.32 0 2 0 C1.67 19.14 1.34 38.28 1 58 C2.32 57.34 3.64 56.68 5 56 C7.75 56.3125 7.75 56.3125 11 57 C11.67933594 57.03996094 12.35867187 57.07992187 13.05859375 57.12109375 C15.1875 57.25 15.1875 57.25 19 58 C20.97101205 60.24287578 21.76208333 62.252463 22.66015625 65.07421875 C23.33978681 67.14282106 23.97752129 69.07612558 25 71 C27.5202272 72.22348143 27.5202272 72.22348143 30 72 C30.33 71.67 30.66 71.34 31 71 C33.67058851 70.85884839 36.32432238 70.95752893 39 71 C39 71.99 39 72.98 39 74 C38.34 74 37.68 74 37 74 C37.04768403 75.87880872 37.04768403 75.87880872 38 78 C39.97485205 79.3703055 41.97386717 80.70672372 44 82 C44 82.66 44 83.32 44 84 C45.65 84.66 47.3 85.32 49 86 C49.495 90.455 49.495 90.455 50 95 C49.01 95.33 48.02 95.66 47 96 C46.95745644 97.99954746 46.95919217 100.00041636 47 102 C47.33 102.33 47.66 102.66 48 103 C48.37083283 104.42828582 48.69743214 105.86821123 49 107.3125 C49.61598718 110.22400191 50.26111126 113.11701446 51 116 C50.01 116.33 49.02 116.66 48 117 C48.13277344 117.59167969 48.26554687 118.18335938 48.40234375 118.79296875 C49.31005178 122.85446525 50.2091113 126.91374171 51 131 C50.30132812 130.96519531 49.60265625 130.93039063 48.8828125 130.89453125 C47.97273438 130.86746094 47.06265625 130.84039062 46.125 130.8125 C45.22007812 130.77769531 44.31515625 130.74289063 43.3828125 130.70703125 C42.59648437 130.80371094 41.81015625 130.90039062 41 131 C38.80430379 133.93745244 38.80430379 133.93745244 38.0625 137.625 C37.711875 138.73875 37.36125 139.8525 37 141 C36.01 141.33 35.02 141.66 34 142 C33.360625 142.680625 32.72125 143.36125 32.0625 144.0625 C30 146 30 146 26 146 C26 146.99 26 147.98 26 149 C24.35546875 150.82421875 24.35546875 150.82421875 22.1875 152.6875 C21.12595703 153.62142578 21.12595703 153.62142578 20.04296875 154.57421875 C18 156 18 156 15 156 C14.67 156.99 14.34 157.98 14 159 C10.625 158.6875 10.625 158.6875 7 158 C6.34 157.01 5.68 156.02 5 155 C3.35 155 1.7 155 0 155 C0 103.85 0 52.7 0 0 Z " fill="#08ACE4" transform="translate(119,91)"/>
<path d="M0 0 C2.86724686 0.57344937 3.8614515 0.8614515 6 3 C6.56813923 4.89758503 7.05810458 6.81910913 7.5 8.75 C8.46518561 12.92547686 9.59352604 16.95032499 11 21 C10.89300781 19.81921875 10.78601563 18.6384375 10.67578125 17.421875 C10.55382991 15.86465026 10.43278347 14.30735446 10.3125 12.75 C10.23966797 11.97269531 10.16683594 11.19539062 10.09179688 10.39453125 C9.84550185 7.00435272 9.73327711 4.63542806 11.0625 1.46875 C13.93011937 -0.70509049 16.14407931 -0.39033349 19.6875 -0.25 C21.45673828 -0.19585937 21.45673828 -0.19585937 23.26171875 -0.140625 C24.16535156 -0.09421875 25.06898438 -0.0478125 26 0 C25.67773438 0.5878125 25.35546875 1.175625 25.0234375 1.78125 C23.53112907 5.01648355 23.62330629 7.48419208 24 11 C26.19941601 14.39076635 28.47367182 15.27913549 32.25 16.25 C33.4875 16.4975 34.725 16.745 36 17 C37.20648326 33.89076571 29.29309811 52.52073085 22.140625 67.52734375 C21.00718346 69.98442763 20.06216062 72.46251849 19.125 75 C15.93212578 83.10498841 11.28628603 89.99406292 5 96 C4.97421875 94.9378125 4.9484375 93.875625 4.921875 92.78125 C4.47420537 79.90998686 2.28632813 73.6709975 -7.29052734 64.6784668 C-8.55892617 63.48534832 -9.78343612 62.24592921 -11 61 C-11 60.34 -11 59.68 -11 59 C-14.75658257 60.1512369 -14.75658257 60.1512369 -17.23950195 63.02636719 C-19 65 -19 65 -22.09448242 65.63769531 C-23.33560791 65.70053711 -24.5767334 65.76337891 -25.85546875 65.828125 C-26.51710526 65.8668573 -27.17874176 65.9055896 -27.86042786 65.94549561 C-29.96893147 66.06483165 -32.0776555 66.15773485 -34.1875 66.25 C-35.61923451 66.32638507 -37.05087837 66.40449013 -38.48242188 66.484375 C-41.98745015 66.67620136 -45.49315784 66.84435125 -49 67 C-47.13275236 63.08736865 -44.68855288 59.72854263 -42.125 56.25 C-37.72843137 50.18950407 -33.70169655 44.42263828 -32 37 C-31.34 37 -30.68 37 -30 37 C-29.7525 35.845 -29.505 34.69 -29.25 33.5 C-28.55797178 30.35849061 -27.81263899 27.23628778 -27.01171875 24.12109375 C-26.83543945 23.43273437 -26.65916016 22.744375 -26.47753906 22.03515625 C-26.12561374 20.66818411 -25.76968795 19.3022337 -25.40917969 17.9375 C-24.21853943 13.30340883 -23.51452425 8.75802323 -23 4 C-22.34 4.33 -21.68 4.66 -21 5 C-21 7.97 -21 10.94 -21 14 C-20.01 14 -19.02 14 -18 14 C-18 14.99 -18 15.98 -18 17 C-19.65 16.67 -21.3 16.34 -23 16 C-22.85962479 17.81293089 -22.71255111 19.6253443 -22.5625 21.4375 C-22.44068359 22.95150391 -22.44068359 22.95150391 -22.31640625 24.49609375 C-22.26788532 26.93640779 -22.26788532 26.93640779 -21 28 C-19.33382885 28.04063832 -17.66611905 28.042721 -16 28 C-15.82726562 27.44570313 -15.65453125 26.89140625 -15.4765625 26.3203125 C-14.5312435 23.88329748 -13.66216626 22.02919281 -12 20 C-9.6484375 19.33984375 -9.6484375 19.33984375 -7 19.0625 C-3.13271493 18.63999439 -3.13271493 18.63999439 -0.42578125 16.03515625 C1.45016324 11.97390099 2.42230851 9.33894114 1 5 C0.65939189 3.33480481 0.32441604 1.66842534 0 0 Z " fill="#031556" transform="translate(344,239)"/>
<path d="M0 0 C3 0 3 0 4.578125 1.46875 C5.40570313 2.47421875 5.40570313 2.47421875 6.25 3.5 C6.85714844 4.22832031 7.46429688 4.95664062 8.08984375 5.70703125 C8.72019531 6.46371094 9.35054688 7.22039062 10 8 C11.83463589 10.01920691 13.67238422 12.03520024 15.51953125 14.04296875 C18.97179242 18.60651188 19.36916662 23.24279414 19.625 28.8125 C19.66367187 29.50537109 19.70234375 30.19824219 19.7421875 30.91210938 C19.83573568 32.60767015 19.91892364 34.30379712 20 36 C20.66 35.67 21.32 35.34 22 35 C20.86695008 38.39914975 19.87481525 39.05254451 17 41 C16.67 40.34 16.34 39.68 16 39 C13.47266765 38.34444881 13.47266765 38.34444881 11 38 C10.95488281 38.57492187 10.90976562 39.14984375 10.86328125 39.7421875 C9.56112307 43.14783196 7.22085511 44.19568345 4.1875 46.125 C2.60001953 47.14980469 2.60001953 47.14980469 0.98046875 48.1953125 C-2 50 -2 50 -4.3046875 51.0859375 C-6.2650114 51.93912088 -6.2650114 51.93912088 -7.3125 54.5 C-9.16498467 57.24442174 -10.42030028 57.99445438 -13.625 58.7265625 C-27.37967914 60.31016043 -27.37967914 60.31016043 -32 58 C-34.59143905 57.68954474 -37.18371732 57.49026088 -39.78515625 57.28125 C-42 57 -42 57 -43 56 C-43.04401732 53.66708189 -43.03954234 51.33299825 -43 49 C-43 47.68 -43 46.36 -43 45 C-43 44.34 -43 43.68 -43 43 C-43.69867188 42.95101562 -44.39734375 42.90203125 -45.1171875 42.8515625 C-46.02726562 42.77679688 -46.93734375 42.70203125 -47.875 42.625 C-48.77992188 42.55539062 -49.68484375 42.48578125 -50.6171875 42.4140625 C-53 42 -53 42 -55 40 C-54.625 37.375 -54.625 37.375 -54 35 C-52.02 34.505 -52.02 34.505 -50 34 C-50.226875 33.195625 -50.45375 32.39125 -50.6875 31.5625 C-51.09375703 26.93116985 -49.99907601 23.18308858 -48 19 C-47.34 18.67 -46.68 18.34 -46 18 C-46 17.34 -46 16.68 -46 16 C-44.35546875 14.34375 -44.35546875 14.34375 -42.1875 12.5 C-41.47980469 11.8915625 -40.77210938 11.283125 -40.04296875 10.65625 C-35.91128582 7.30666384 -33.59081117 6.72380198 -28.3203125 6.54296875 C-26.98563861 6.48195574 -25.65100394 6.42007965 -24.31640625 6.35742188 C-22.22100103 6.26886635 -20.12603754 6.18753252 -18.02978516 6.12182617 C-16.00012017 6.05417067 -13.97353568 5.956847 -11.9453125 5.85546875 C-10.73375488 5.81059326 -9.52219727 5.76571777 -8.27392578 5.71948242 C-4.19021147 4.82203976 -2.78246204 3.02091573 0 0 Z " fill="#F8F906" transform="translate(330,298)"/>
<path d="M0 0 C0.33 0 0.66 0 1 0 C1 5.28 1 10.56 1 16 C1.66 16 2.32 16 3 16 C3.1820896 25.36749815 2.61326035 34.6587308 2 44 C1.67 43.34 1.34 42.68 1 42 C0.01 42 -0.98 42 -2 42 C-4.1875 39 -4.1875 39 -6 36 C-8.64 36.66 -11.28 37.32 -14 38 C-14 37.01 -14 36.02 -14 35 C-16.31 35.66 -18.62 36.32 -21 37 C-21.33 39.31 -21.66 41.62 -22 44 C-22.495 42.515 -22.495 42.515 -23 41 C-23.66 41 -24.32 41 -25 41 C-25 40.34 -25 39.68 -25 39 C-25.78375 38.938125 -26.5675 38.87625 -27.375 38.8125 C-30 38 -30 38 -31.3125 35.625 C-32 33 -32 33 -32 30 C-31.05125 29.731875 -30.1025 29.46375 -29.125 29.1875 C-25.74732727 28.25013412 -25.74732727 28.25013412 -24 25 C-23.01 24.67 -22.02 24.34 -21 24 C-20.27129528 21.68529088 -19.60760482 19.3494053 -19 17 C-18.34 16.01 -17.68 15.02 -17 14 C-13.7 14.33 -10.4 14.66 -7 15 C-7 12.03 -7 9.06 -7 6 C-6.34 6 -5.68 6 -5 6 C-5 4.35 -5 2.7 -5 1 C-2.525 1.495 -2.525 1.495 0 2 C0 1.34 0 0.68 0 0 Z " fill="#0A2359" transform="translate(177,207)"/>
<path d="M0 0 C0.66 0 1.32 0 2 0 C2.556875 1.00417969 3.11375 2.00835937 3.6875 3.04296875 C4.45763598 4.42486803 5.22852462 5.80634802 6 7.1875 C6.40210693 7.90768311 6.80421387 8.62786621 7.21850586 9.36987305 C10.48528093 15.17839749 13.9600529 20.82292818 17.56640625 26.42578125 C19 29 19 29 19 32 C7.12 32 -4.76 32 -17 32 C-16.06315768 27.31578842 -14.93628749 24.72935437 -12.5625 20.6875 C-11.63630859 19.08455078 -11.63630859 19.08455078 -10.69140625 17.44921875 C-10.13324219 16.64097656 -9.57507813 15.83273437 -9 15 C-8.34 15 -7.68 15 -7 15 C-6.89558594 14.28457031 -6.79117188 13.56914062 -6.68359375 12.83203125 C-5.92477733 9.68836323 -4.73506294 7.44784227 -3.0625 4.6875 C-2.53785156 3.80449219 -2.01320312 2.92148437 -1.47265625 2.01171875 C-0.98667969 1.34785156 -0.50070313 0.68398438 0 0 Z " fill="#0E1C5C" transform="translate(148,365)"/>
<path d="M0 0 C0 0.99 0 1.98 0 3 C0.9075 2.46375 1.815 1.9275 2.75 1.375 C6 0 6 0 8.25 0.5 C10.47936461 2.41088395 11.12572627 4.23146654 12 7 C12.99 7 13.98 7 15 7 C16.53266582 10.06533164 16.10276471 13.26754272 16.0625 16.625 C16.05798828 17.33140625 16.05347656 18.0378125 16.04882812 18.765625 C16.03703875 20.51045275 16.01910324 22.255237 16 24 C14.02 23.67 12.04 23.34 10 23 C9.20046862 19.71303767 8.90341064 18.28976808 10 15 C7.55519921 15.18828772 7.55519921 15.18828772 5 16 C2.80380754 19.17869962 2.88145195 21.49903485 3.375 25.25 C3.48585937 26.14203125 3.59671875 27.0340625 3.7109375 27.953125 C3.80632812 28.62859375 3.90171875 29.3040625 4 30 C0.23400926 30.96839762 -2.23391544 30.75321691 -6 30 C-8.72502965 30.37722015 -8.72502965 30.37722015 -11 31 C-13 28 -13 28 -12.625 25.8125 C-12.41875 25.214375 -12.2125 24.61625 -12 24 C-8.71303767 23.20046862 -7.28976808 22.90341064 -4 24 C-4.103125 22.741875 -4.20625 21.48375 -4.3125 20.1875 C-4.37050781 19.47980469 -4.42851562 18.77210938 -4.48828125 18.04296875 C-4.83449632 15.90196381 -4.83449632 15.90196381 -6.51953125 14.51953125 C-8.49462664 12.49232253 -8.40286882 11.28688192 -8.375 8.5 C-8.38273438 7.7265625 -8.39046875 6.953125 -8.3984375 6.15625 C-7.90944554 3.50994057 -7.07463075 2.6597046 -5 1 C-3 0 -3 0 0 0 Z " fill="#EAEC0E" transform="translate(163,242)"/>
<path d="M0 0 C0.33 0 0.66 0 1 0 C1.33 33.99 1.66 67.98 2 103 C3.65 103.33 5.3 103.66 7 104 C7.33 104.99 7.66 105.98 8 107 C9.32 107 10.64 107 12 107 C11.67 108.65 11.34 110.3 11 112 C6.545 112.99 6.545 112.99 2 114 C1.67 121.26 1.34 128.52 1 136 C0.67 136 0.34 136 0 136 C0 91.12 0 46.24 0 0 Z " fill="#DCE8E9" transform="translate(118,142)"/>
<path d="M0 0 C-0.33 2.31 -0.66 4.62 -1 7 C1.64 7.33 4.28 7.66 7 8 C7 8.33 7 8.66 7 9 C-2.9 9.66 -12.8 10.32 -23 11 C-21.43108518 7.86217036 -19.97689907 5.49160748 -17.875 2.75 C-17.33617187 2.04359375 -16.79734375 1.3371875 -16.2421875 0.609375 C-15.83226562 0.07828125 -15.42234375 -0.4528125 -15 -1 C-14.34 0.32 -13.68 1.64 -13 3 C-12.62875 2.360625 -12.2575 1.72125 -11.875 1.0625 C-10 -1 -10 -1 -7.0625 -1.875 C-3.92857394 -2.00291535 -2.58295732 -1.68885671 0 0 Z " fill="#162249" transform="translate(318,295)"/>
<path d="M0 0 C1.65 0 3.3 0 5 0 C5.19335938 0.62648438 5.38671875 1.25296875 5.5859375 1.8984375 C5.84632813 2.71570313 6.10671875 3.53296875 6.375 4.375 C6.63023437 5.18710938 6.88546875 5.99921875 7.1484375 6.8359375 C7.89854283 9.16459185 7.89854283 9.16459185 10 11 C12.57061311 11.64767793 12.57061311 11.64767793 15 12 C15 13.98 15 15.96 15 18 C14.34 18 13.68 18 13 18 C13 18.66 13 19.32 13 20 C11.35567294 20.36109542 9.7094792 20.71370076 8.0625 21.0625 C6.68771484 21.35833984 6.68771484 21.35833984 5.28515625 21.66015625 C4.53105469 21.77230469 3.77695313 21.88445312 3 22 C1.10309594 20.10309594 1.29951696 16.92252674 0.9375 14.375 C0.76089844 13.16585937 0.58429688 11.95671875 0.40234375 10.7109375 C0.01153384 7.10638011 -0.06983746 3.62223645 0 0 Z " fill="#EBF5F9" transform="translate(169,81)"/>
<path d="M0 0 C1.828125 0.19140625 1.828125 0.19140625 4 1 C5.484375 3.21484375 5.484375 3.21484375 6.75 5.9375 C7.17796875 6.83339844 7.6059375 7.72929687 8.046875 8.65234375 C9 11 9 11 9 13 C4.38 13 -0.24 13 -5 13 C-4.22998773 9.14993864 -3.6738858 6.99223427 -1.9375 3.6875 C-1.57527344 2.99011719 -1.21304688 2.29273438 -0.83984375 1.57421875 C-0.56269531 1.05472656 -0.28554687 0.53523438 0 0 Z " fill="#14225F" transform="translate(137,349)"/>
<path d="M0 0 C4.40334829 2.51619902 6.1799233 6.44012699 8 11 C8 11.66 8 12.32 8 13 C3.05 13 -1.9 13 -7 13 C-5.58001139 9.45002848 -4.3878411 6.81270066 -2.375 3.6875 C-1.92898437 2.99011719 -1.48296875 2.29273438 -1.0234375 1.57421875 C-0.51683594 0.79498047 -0.51683594 0.79498047 0 0 Z " fill="#16215E" transform="translate(168,366)"/>
<path d="M0 0 C-1.485 1.485 -1.485 1.485 -3 3 C-0.69 3.33 1.62 3.66 4 4 C4 4.33 4 4.66 4 5 C2.35 5 0.7 5 -1 5 C-1 7.31 -1 9.62 -1 12 C-2.98 12.66 -4.96 13.32 -7 14 C-11.57142857 6.71428571 -11.57142857 6.71428571 -11 2 C-7.36576791 -0.32590854 -4.22911669 -0.16265833 0 0 Z " fill="#13A9DE" transform="translate(170,76)"/>
<path d="M0 0 C1.98 0 3.96 0 6 0 C5.67 2.64 5.34 5.28 5 8 C5.99 8 6.98 8 8 8 C8 9.65 8 11.3 8 13 C6.68 13.33 5.36 13.66 4 14 C4 12.02 4 10.04 4 8 C0.08329972 6.94550377 -3.93052277 6 -8 6 C-8 7.32 -8 8.64 -8 10 C-8.66 9.67 -9.32 9.34 -10 9 C-9.6875 7.125 -9.6875 7.125 -9 5 C-5.5647952 2.70986347 -4.014669 2.82157027 0 3 C0 2.01 0 1.02 0 0 Z " fill="#13234D" transform="translate(129,251)"/>
<path d="M0 0 C2.23551759 3.35327639 2.17283528 3.90743657 1.625 7.6875 C1.45871094 8.89986328 1.45871094 8.89986328 1.2890625 10.13671875 C1.19367188 10.75160156 1.09828125 11.36648437 1 12 C-1.25 11.875 -1.25 11.875 -4 11 C-6.1875 8.0625 -6.1875 8.0625 -8 5 C-8.66 4.34 -9.32 3.68 -10 3 C-5.05 1.515 -5.05 1.515 0 0 Z " fill="#0B98D2" transform="translate(182,100)"/>
<path d="M0 0 C0.515625 0.37125 1.03125 0.7425 1.5625 1.125 C1.23476629 4.15653686 0.92115103 5.74073103 -1.1875 8 C-4.03224935 9.42237468 -5.45366624 9.03672698 -8.4375 8.125 C-8.4375 7.465 -8.4375 6.805 -8.4375 6.125 C-9.0975 6.125 -9.7575 6.125 -10.4375 6.125 C-10.1075 4.475 -9.7775 2.825 -9.4375 1.125 C-3.0375 -1.09038462 -3.0375 -1.09038462 0 0 Z " fill="#DFE218" transform="translate(316.4375,293.875)"/>
<path d="M0 0 C1.65 0.33 3.3 0.66 5 1 C5.33 1.99 5.66 2.98 6 4 C7.32 4 8.64 4 10 4 C9.67 5.65 9.34 7.3 9 9 C6.03 9.66 3.06 10.32 0 11 C-0.33 12.32 -0.66 13.64 -1 15 C-1.02703381 13.06257659 -1.04641125 11.12504521 -1.0625 9.1875 C-1.07410156 8.10855469 -1.08570312 7.02960938 -1.09765625 5.91796875 C-1 3 -1 3 0 0 Z " fill="#F0F517" transform="translate(120,245)"/>
<path d="M0 0 C4.42679007 1.47559669 4.91432696 3.90057368 7 8 C7 8.66 7 9.32 7 10 C3.37 10 -0.26 10 -4 10 C-3.06588007 6.2635203 -1.77257035 3.39100415 0 0 Z " fill="#3E4473" transform="translate(124,370)"/>
<path d="M0 0 C2 0.6875 2 0.6875 4 2.6875 C3.67 3.0175 3.34 3.3475 3 3.6875 C5.64 4.3475 8.28 5.0075 11 5.6875 C11 4.0375 11 2.3875 11 0.6875 C11.33 0.6875 11.66 0.6875 12 0.6875 C12 2.6675 12 4.6475 12 6.6875 C8.23400926 7.65589762 5.76608456 7.44071691 2 6.6875 C-0.72502965 7.06472015 -0.72502965 7.06472015 -3 7.6875 C-5 4.6875 -5 4.6875 -4.75 2.5625 C-3.69927689 -0.06430777 -2.76456114 -0.43196268 0 0 Z " fill="#CDD21F" transform="translate(155,265.3125)"/>
<path d="M0 0 C1.32 0 2.64 0 4 0 C4.33 1.98 4.66 3.96 5 6 C8.3 6.66 11.6 7.32 15 8 C15.33 8.99 15.66 9.98 16 11 C9.95198929 10.45018084 4.69398894 9.09570426 -1 7 C-0.67 4.69 -0.34 2.38 0 0 Z " fill="#F7F84A" transform="translate(161,318)"/>
<path d="M0 0 C0.66 0 1.32 0 2 0 C3.2890625 1.6796875 3.2890625 1.6796875 4.625 3.875 C5.07101563 4.59429687 5.51703125 5.31359375 5.9765625 6.0546875 C7 8 7 8 7 10 C3.37 10 -0.26 10 -4 10 C-2.8905928 6.51329166 -1.73662334 3.22515763 0 0 Z " fill="#141D59" transform="translate(157,348)"/>
<path d="M0 0 C0.33 0 0.66 0 1 0 C1.09038099 5.15171623 0.84681133 9.91913204 0 15 C-1.32 15.33 -2.64 15.66 -4 16 C-4 16.66 -4 17.32 -4 18 C-3.28972656 18.18175781 -2.57945312 18.36351562 -1.84765625 18.55078125 C-0.92855469 18.80214844 -0.00945312 19.05351562 0.9375 19.3125 C1.85402344 19.55613281 2.77054687 19.79976563 3.71484375 20.05078125 C4.46894531 20.36402344 5.22304688 20.67726563 6 21 C6.33 21.99 6.66 22.98 7 24 C6.34 24 5.68 24 5 24 C5 23.34 5 22.68 5 22 C4.30132812 21.95101563 3.60265625 21.90203125 2.8828125 21.8515625 C1.97273438 21.77679688 1.06265625 21.70203125 0.125 21.625 C-0.77992188 21.55539062 -1.68484375 21.48578125 -2.6171875 21.4140625 C-5 21 -5 21 -7 19 C-6.625 16.375 -6.625 16.375 -6 14 C-4.68 13.67 -3.36 13.34 -2 13 C-2.3403125 11.7315625 -2.3403125 11.7315625 -2.6875 10.4375 C-3.09143364 5.99422997 -1.97302401 3.94604801 0 0 Z " fill="#979D2C" transform="translate(282,319)"/>
<path d="M0 0 C0.66 0.33 1.32 0.66 2 1 C2 3.97 2 6.94 2 10 C2.99 10 3.98 10 5 10 C5 10.99 5 11.98 5 13 C3.35 12.67 1.7 12.34 0 12 C-0.33 15.63 -0.66 19.26 -1 23 C-1.99 23.33 -2.98 23.66 -4 24 C-3.35588614 18.44686304 -2.49942196 12.98744364 -1.4375 7.5 C-1.22963867 6.40945312 -1.22963867 6.40945312 -1.01757812 5.296875 C-0.68063335 3.53081963 -0.34064317 1.76534574 0 0 Z " fill="#2A4D82" transform="translate(321,243)"/>
<path d="M0 0 C2.625 -0.1875 2.625 -0.1875 5 0 C5.29296875 6.0546875 5.29296875 6.0546875 5 8 C4.01 8.66 3.02 9.32 2 10 C1.01 11.485 1.01 11.485 0 13 C-3.05194805 8.72727273 -3.05194805 8.72727273 -2.8125 5.375 C-2 3 -2 3 0 0 Z " fill="#081447" transform="translate(168,257)"/>
<path d="M0 0 C1.65 0 3.3 0 5 0 C5.8125 1.625 5.8125 1.625 6 4 C4.53181864 6.24609835 2.84147142 8.02378677 1 10 C-0.32 9.67 -1.64 9.34 -3 9 C-3.33 7.68 -3.66 6.36 -4 5 C-3.01 4.67 -2.02 4.34 -1 4 C-0.26676204 1.98491642 -0.26676204 1.98491642 0 0 Z " fill="#121F51" transform="translate(341,336)"/>
<path d="M0 0 C1.9375 0.5 1.9375 0.5 4 2 C4.68790422 4.69658452 4.81946464 7.2017019 5 10 C1.88742431 10 -0.10765685 9.82638376 -3 9 C-3.26218749 5.85375007 -3.24754367 4.38162983 -1.5 1.6875 C-1.005 1.130625 -0.51 0.57375 0 0 Z " fill="#04114E" transform="translate(155,256)"/>
<path d="M0 0 C2.33294775 -0.04241723 4.66702567 -0.04092937 7 0 C8 1 8 1 8.0625 3.5625 C8.041875 4.366875 8.02125 5.17125 8 6 C4.71303767 6.79953138 3.28976808 7.09658936 0 6 C0 4.02 0 2.04 0 0 Z " fill="#70075C" transform="translate(135,249)"/>
<path d="M0 0 C0 2.64 0 5.28 0 8 C-2.64 8 -5.28 8 -8 8 C-8 5 -8 5 -5.6875 2.3125 C-3 0 -3 0 0 0 Z " fill="#033073" transform="translate(189,116)"/>
<path d="M0 0 C1.32 0.33 2.64 0.66 4 1 C4 3.31 4 5.62 4 8 C2.35 8 0.7 8 -1 8 C-1.625 5.6875 -1.625 5.6875 -2 3 C-1.34 2.01 -0.68 1.02 0 0 Z " fill="#0A8DC6" transform="translate(176,222)"/>
<path d="M0 0 C0.66 0.33 1.32 0.66 2 1 C1.51171875 4.02734375 1.51171875 4.02734375 1.0234375 7.0546875 C1.01570312 7.69664063 1.00796875 8.33859375 1 9 C1.66 9.66 2.32 10.32 3 11 C-0.63 11 -4.26 11 -8 11 C-8 10.01 -8 9.02 -8 8 C-5.36 8 -2.72 8 0 8 C0 5.36 0 2.72 0 0 Z " fill="#0893CE" transform="translate(189,116)"/>
<path d="M0 0 C4.29 0 8.58 0 13 0 C12.67 1.65 12.34 3.3 12 5 C6.25 4.25 6.25 4.25 4 2 C2.68 1.34 1.36 0.68 0 0 Z " fill="#0C90CC" transform="translate(144,97)"/>
<path d="M0 0 C0.125 6.75 0.125 6.75 -1 9 C-1.99 9 -2.98 9 -4 9 C-5.25664978 6.09399739 -6 4.20395416 -6 1 C-3.92446352 0.4465236 -2.15634036 0 0 0 Z " fill="#BCD535" transform="translate(151,236)"/>
<path d="M0 0 C0.33 0 0.66 0 1 0 C2.22899346 6.06815522 3.27560214 11.79895188 3 18 C0.45615274 16.72807637 0.30631844 15.80051531 -0.6875 13.1875 C-0.95949219 12.50042969 -1.23148437 11.81335938 -1.51171875 11.10546875 C-2.07718637 8.66717239 -1.76156956 7.35700959 -1 5 C-0.65939189 3.33480481 -0.32441604 1.66842534 0 0 Z " fill="#0E85C0" transform="translate(353,243)"/>
<path d="M0 0 C3 1 3 1 5 4 C5 4.99 5 5.98 5 7 C2.36 7 -0.28 7 -3 7 C-1.125 2.25 -1.125 2.25 0 0 Z " fill="#2E366C" transform="translate(124,340)"/>
<path d="M0 0 C1.32 0 2.64 0 4 0 C5.35439668 2.70879335 5.06501451 5.00933268 5 8 C3.35 7.67 1.7 7.34 0 7 C0 4.69 0 2.38 0 0 Z " fill="#0D88C3" transform="translate(125,258)"/>
<path d="M0 0 C1.32 0 2.64 0 4 0 C5.85776765 3.13498292 6.20140476 5.37471432 6 9 C6.66 9.33 7.32 9.66 8 10 C7.34 10 6.68 10 6 10 C5.67 10.66 5.34 11.32 5 12 C4.67 10.02 4.34 8.04 4 6 C3.34 6 2.68 6 2 6 C0 3 0 3 0 0 Z " fill="#30386E" transform="translate(121,72)"/>
<path d="M0 0 C0.99 0.33 1.98 0.66 3 1 C4.1875 4.0625 4.1875 4.0625 5 7 C2.36 7 -0.28 7 -3 7 C-1.125 2.25 -1.125 2.25 0 0 Z " fill="#283066" transform="translate(167,340)"/>
<path d="M0 0 C0.78375 0.04125 1.5675 0.0825 2.375 0.125 C1.80155063 2.99224686 1.5135485 3.9864515 -0.625 6.125 C-3.25 6.25 -3.25 6.25 -5.625 6.125 C-4.86443086 2.32215429 -4.27658992 0.20364714 0 0 Z " fill="#0C90CC" transform="translate(150.625,147.875)"/>
<path d="M0 0 C2 1.25 2 1.25 4 3 C4 4.32 4 5.64 4 7 C1.69 7 -0.62 7 -3 7 C-2.38722388 4.03824877 -1.74627478 2.61941217 0 0 Z " fill="#283068" transform="translate(122,390)"/>
<path d="M0 0 C0.66 0 1.32 0 2 0 C2 4.29 2 8.58 2 13 C1.34 13 0.68 13 0 13 C0 10.69 0 8.38 0 6 C-0.66 6 -1.32 6 -2 6 C-1.125 1.125 -1.125 1.125 0 0 Z " fill="#2F7CA8" transform="translate(177,317)"/>
<path d="M0 0 C0.66 0 1.32 0 2 0 C5 4.38461538 5 4.38461538 5 7 C2.36 7 -0.28 7 -3 7 C-1.125 2.25 -1.125 2.25 0 0 Z " fill="#212761" transform="translate(174,390)"/>
<path d="M0 0 C0.66 0 1.32 0 2 0 C2.33 1.32 2.66 2.64 3 4 C-1.62 4 -6.24 4 -11 4 C-10.67 3.01 -10.34 2.02 -10 1 C-6.80097361 0.91113816 -4.07322544 1.08941469 -1 2 C-0.67 1.34 -0.34 0.68 0 0 Z " fill="#0A1858" transform="translate(143,358)"/>
<path d="M0 0 C0.33 0.66 0.66 1.32 1 2 C0.01 2.33 -0.98 2.66 -2 3 C-1.34 3.66 -0.68 4.32 0 5 C-0.7425 5.433125 -1.485 5.86625 -2.25 6.3125 C-4.61833926 7.76579909 -6.80924065 9.29607606 -9 11 C-7.85781803 7.13415332 -6.8281145 3.93688813 -4 1 C-1.8125 0.25 -1.8125 0.25 0 0 Z " fill="#0D8ECA" transform="translate(189,111)"/>
<path d="M0 0 C1.32 0 2.64 0 4 0 C4 2.31 4 4.62 4 7 C2.35 7 0.7 7 -1 7 C-0.67 4.69 -0.34 2.38 0 0 Z " fill="#FBFD36" transform="translate(161,318)"/>
<path d="M0 0 C0 1.32 0 2.64 0 4 C-6.15234375 3.4140625 -6.15234375 3.4140625 -8 3 C-8.33 2.34 -8.66 1.68 -9 1 C-2.25 -1.125 -2.25 -1.125 0 0 Z " fill="#FDFD05" transform="translate(166,267)"/>
<path d="M0 0 C0 0.99 0 1.98 0 3 C-2.64 3 -5.28 3 -8 3 C-8 2.01 -8 1.02 -8 0 C-4.71023192 -1.09658936 -3.28696233 -0.79953138 0 0 Z " fill="#485431" transform="translate(335,317)"/>
<path d="M0 0 C4.42857143 5.14285714 4.42857143 5.14285714 5 9 C1.75728494 8.4409112 0.06942576 7.5867822 -2 5 C-2 4.34 -2 3.68 -2 3 C-1.34 3 -0.68 3 0 3 C0 2.01 0 1.02 0 0 Z " fill="#131A5A" transform="translate(174,298)"/>
<path d="M0 0 C2.86724686 0.57344937 3.8614515 0.8614515 6 3 C6 4.32 6 5.64 6 7 C4.125 6.875 4.125 6.875 2 6 C0.75 2.9375 0.75 2.9375 0 0 Z " fill="#659C56" transform="translate(138,148)"/>
<path d="M0 0 C-0.33 1.32 -0.66 2.64 -1 4 C-3.31 4 -5.62 4 -8 4 C-7 1 -7 1 -5.125 -0.25 C-3 -1 -3 -1 0 0 Z " fill="#061257" transform="translate(128,375)"/>
<path d="M0 0 C2.475 0.495 2.475 0.495 5 1 C5.33 1.99 5.66 2.98 6 4 C7.32 4 8.64 4 10 4 C9.67 5.65 9.34 7.3 9 9 C8.34 8.67 7.68 8.34 7 8 C7.33 7.01 7.66 6.02 8 5 C7.01 5 6.02 5 5 5 C5 4.34 5 3.68 5 3 C3.35 3.33 1.7 3.66 0 4 C0 2.68 0 1.36 0 0 Z " fill="#B3D642" transform="translate(120,245)"/>
<path d="M0 0 C1.32 0.33 2.64 0.66 4 1 C4 2.98 4 4.96 4 7 C2.68 7 1.36 7 0 7 C0 4.69 0 2.38 0 0 Z " fill="#0D83C0" transform="translate(123,119)"/>
<path d="M0 0 C0.33 0 0.66 0 1 0 C1.07654536 4.51617599 1.10228696 8.59085217 0 13 C-1.5625 11.75 -1.5625 11.75 -3 10 C-2.8125 8.1875 -2.8125 8.1875 -2 6 C-1.649375 4.9275 -1.29875 3.855 -0.9375 2.75 C-0.4734375 1.38875 -0.4734375 1.38875 0 0 Z " fill="#CCD022" transform="translate(282,319)"/>
<path d="M0 0 C2.86724686 0.57344937 3.8614515 0.8614515 6 3 C5.625 5.125 5.625 5.125 5 7 C5 6.34 5 5.68 5 5 C4.01 5.33 3.02 5.66 2 6 C0 3 0 3 0 0 Z " fill="#042C6E" transform="translate(344,239)"/>
<path d="M0 0 C2.475 0.495 2.475 0.495 5 1 C5 2.32 5 3.64 5 5 C3.35 5 1.7 5 0 5 C0 3.35 0 1.7 0 0 Z " fill="#70085C" transform="translate(158,279)"/>
<path d="M0 0 C1.32 0 2.64 0 4 0 C4 1.65 4 3.3 4 5 C2.68 5.33 1.36 5.66 0 6 C0 4.02 0 2.04 0 0 Z " fill="#0B99D5" transform="translate(133,259)"/>
<path d="M0 0 C2.64 0 5.28 0 8 0 C8 0.99 8 1.98 8 3 C7.34 3 6.68 3 6 3 C5.67 3.99 5.34 4.98 5 6 C5 4.68 5 3.36 5 2 C3.02 2 1.04 2 -1 2 C-0.67 1.34 -0.34 0.68 0 0 Z " fill="#0E84BF" transform="translate(150,162)"/>
<path d="M0 0 C0 1.65 0 3.3 0 5 C-2.31 5 -4.62 5 -7 5 C-2.25 0 -2.25 0 0 0 Z " fill="#021055" transform="translate(189,118)"/>
<path d="M0 0 C0.99 0.66 1.98 1.32 3 2 C2.67 3.98 2.34 5.96 2 8 C0.35 8.33 -1.3 8.66 -3 9 C-3 8.34 -3 7.68 -3 7 C-2.01 7 -1.02 7 0 7 C0 4.69 0 2.38 0 0 Z " fill="#2F376D" transform="translate(133,76)"/>
<path d="M0 0 C-1.75 4.875 -1.75 4.875 -4 6 C-4.99 5.67 -5.98 5.34 -7 5 C-7 4.34 -7 3.68 -7 3 C-2.61538462 0 -2.61538462 0 0 0 Z " fill="#1E2561" transform="translate(197,346)"/>
<path d="M0 0 C0.33 0 0.66 0 1 0 C1.21278058 4.46839215 0.59138085 7.82262526 -1 12 C-1.33 12 -1.66 12 -2 12 C-2 9.03 -2 6.06 -2 3 C-1.34 3 -0.68 3 0 3 C0 2.01 0 1.02 0 0 Z " fill="#4D537C" transform="translate(378,265)"/>
<path d="M0 0 C2.5654594 2.5654594 2.54046087 4.47686668 3 8 C2.01 8.66 1.02 9.32 0 10 C0 6.7 0 3.4 0 0 Z " fill="#18223F" transform="translate(349,325)"/>
<path d="M0 0 C0.33 0 0.66 0 1 0 C1 1.65 1 3.3 1 5 C3.97 5.495 3.97 5.495 7 6 C5.1875 7.0625 5.1875 7.0625 3 8 C2.01 7.67 1.02 7.34 0 7 C0 4.69 0 2.38 0 0 Z " fill="#A0BFD2" transform="translate(171,95)"/>
<path d="M0 0 C1.32 0.33 2.64 0.66 4 1 C2.91926148 3.16147703 1.80636736 4.41039672 0 6 C-0.66 6 -1.32 6 -2 6 C-1.34 4.02 -0.68 2.04 0 0 Z " fill="#515885" transform="translate(137,349)"/>
<path d="M0 0 C2.97 0.495 2.97 0.495 6 1 C4.68 1.33 3.36 1.66 2 2 C2 3.98 2 5.96 2 8 C1.67 8 1.34 8 1 8 C0.40267181 5.23735711 0 2.83967231 0 0 Z " fill="#031C5F" transform="translate(123,256)"/>
<path d="M0 0 C0.33 0.66 0.66 1.32 1 2 C0.22265625 3.7265625 0.22265625 3.7265625 -0.9375 5.625 C-1.618125 6.73875 -2.29875 7.8525 -3 9 C-3.66 8.67 -4.32 8.34 -5 8 C-3.62845496 5.04590299 -2.01136276 2.55991624 0 0 Z " fill="#242E68" transform="translate(303,294)"/>
<path d="M0 0 C1.65 0 3.3 0 5 0 C4.67 1.32 4.34 2.64 4 4 C3.67 3.34 3.34 2.68 3 2 C2.34 3.65 1.68 5.3 1 7 C0.67 7 0.34 7 0 7 C0 4.69 0 2.38 0 0 Z " fill="#C2E4F0" transform="translate(169,81)"/>
</svg>
